<svg width="169" height="52" viewBox="0 0 169 52" fill="none" xmlns="http://www.w3.org/2000/svg">
<g clip-path="url(#clip0_189_1173)">
<circle cx="28.7366" cy="25.6518" r="25.6518" fill="url(#paint0_angular_189_1173)"/>
<path d="M39.5044 34.6745L36.1477 31.2342C35.2347 32.1027 34.1993 32.7985 33.0414 33.3218C31.8946 33.8339 30.6087 34.09 29.1836 34.09C28.048 34.09 26.9847 33.8896 25.9938 33.4888C25.0029 33.088 24.1401 32.5369 23.4053 31.8355C22.6705 31.134 22.0915 30.3046 21.6684 29.3471C21.2454 28.3896 21.0338 27.3598 21.0338 26.2575C21.0338 24.8436 21.3623 23.591 22.0191 22.4999C22.676 21.4089 23.589 20.4514 24.758 19.6275C24.7691 19.6275 24.7858 19.6163 24.8081 19.5941L24.4908 19.2601C23.8005 18.5253 23.2661 17.7292 22.8876 16.8719C22.5201 16.0146 22.3364 15.0516 22.3364 13.9827C22.3364 13.0698 22.5201 12.2014 22.8876 11.3775C23.255 10.5536 23.7615 9.82992 24.4073 9.20644C25.0642 8.57182 25.8268 8.07081 26.6952 7.7034C27.5748 7.336 28.5267 7.15229 29.551 7.15229C30.631 7.15229 31.6107 7.34156 32.4903 7.7201C33.3698 8.09865 34.1213 8.60522 34.7448 9.23984C35.3683 9.86332 35.8471 10.587 36.1811 11.4109C36.5262 12.2236 36.6988 13.0698 36.6988 13.9493C36.6988 14.5728 36.6153 15.174 36.4483 15.753C36.2924 16.3319 36.0697 16.8719 35.7803 17.3729C35.5019 17.8739 35.1735 18.336 34.7949 18.7591C34.4164 19.171 34.0156 19.5273 33.5925 19.8279C33.4032 19.9615 33.2195 20.0951 33.0414 20.2287C32.8633 20.3512 32.6795 20.4736 32.4903 20.5961L35.2291 23.3016C35.385 22.8005 35.513 22.3218 35.6132 21.8653C35.7246 21.3977 35.8137 20.9579 35.8805 20.546H40.8739C40.7959 21.626 40.6067 22.7282 40.3061 23.8527C40.0166 24.966 39.6158 26.0516 39.1036 27.1092L43.3622 31.2843L39.5044 34.6745ZM26.3111 26.1573C26.3111 26.5247 26.3835 26.881 26.5282 27.2261C26.673 27.5602 26.8734 27.8608 27.1295 28.128C27.3967 28.3952 27.714 28.6067 28.0814 28.7626C28.4488 28.9185 28.8607 28.9964 29.3172 28.9964C30.0186 28.9964 30.6421 28.8795 31.1876 28.6457C31.7443 28.4007 32.2453 28.0779 32.6907 27.6771L28.3152 23.2014C28.0146 23.3906 27.7362 23.5855 27.4802 23.7859C27.2352 23.9863 27.0237 24.2034 26.8455 24.4372C26.6785 24.671 26.5449 24.9326 26.4447 25.2221C26.3557 25.5004 26.3111 25.8122 26.3111 26.1573ZM30.7868 16.1037C31.1431 15.8476 31.3936 15.547 31.5384 15.2019C31.6942 14.8456 31.7722 14.4281 31.7722 13.9493C31.7722 13.6487 31.7109 13.3648 31.5885 13.0976C31.4771 12.8304 31.3157 12.5966 31.1041 12.3962C30.9037 12.1847 30.6699 12.0232 30.4027 11.9119C30.1355 11.7894 29.8516 11.7282 29.551 11.7282C29.1947 11.7282 28.8719 11.7839 28.5824 11.8952C28.2929 12.0065 28.0424 12.1624 27.8309 12.3628C27.6193 12.5632 27.4523 12.8026 27.3299 13.0809C27.2185 13.3481 27.1629 13.6376 27.1629 13.9493C27.1629 14.3947 27.2408 14.8289 27.3967 15.252C27.5637 15.6639 27.7919 16.0035 28.0814 16.2707L29.0166 17.1892C29.3617 16.9999 29.6846 16.8162 29.9852 16.6381C30.2858 16.46 30.553 16.2818 30.7868 16.1037Z" fill="#98CE00"/>
<path d="M39.5044 34.6745L39.382 34.7939L39.4954 34.9101L39.6173 34.803L39.5044 34.6745ZM36.1477 31.2342L36.2701 31.1148L36.1521 30.994L36.0298 31.1103L36.1477 31.2342ZM33.0414 33.3218L33.1111 33.4779L33.1118 33.4776L33.0414 33.3218ZM22.0191 22.4999L21.8726 22.4117L22.0191 22.4999ZM24.758 19.6275V19.4565H24.7038L24.6595 19.4877L24.758 19.6275ZM24.8081 19.5941L24.929 19.715L25.0469 19.5971L24.9321 19.4763L24.8081 19.5941ZM24.4908 19.2601L24.3662 19.3772L24.3668 19.3779L24.4908 19.2601ZM22.8876 16.8719L22.7304 16.9393L22.7311 16.941L22.8876 16.8719ZM24.4073 9.20644L24.5261 9.32946L24.5261 9.32943L24.4073 9.20644ZM26.6952 7.7034L26.6293 7.5456L26.6286 7.54591L26.6952 7.7034ZM34.7448 9.23984L34.6228 9.35969L34.6239 9.36076L34.7448 9.23984ZM36.1811 11.4109L36.0226 11.4751L36.0237 11.4777L36.1811 11.4109ZM36.4483 15.753L36.2839 15.7056L36.2831 15.7085L36.4483 15.753ZM35.7803 17.3729L35.6322 17.2874L35.6308 17.2899L35.7803 17.3729ZM34.7949 18.7591L34.9209 18.8748L34.9224 18.8731L34.7949 18.7591ZM33.5925 19.8279L33.6911 19.9676L33.6916 19.9673L33.5925 19.8279ZM33.0414 20.2287L33.1384 20.3697L33.144 20.3655L33.0414 20.2287ZM32.4903 20.5961L32.3974 20.4525L32.2187 20.5682L32.3701 20.7178L32.4903 20.5961ZM35.2291 23.3016L35.109 23.4232L35.3089 23.6208L35.3924 23.3524L35.2291 23.3016ZM35.6132 21.8653L35.4469 21.8257L35.4462 21.8287L35.6132 21.8653ZM35.8805 20.546V20.375H35.7349L35.7116 20.5186L35.8805 20.546ZM40.8739 20.546L41.0444 20.5583L41.0577 20.375H40.8739V20.546ZM40.3061 23.8527L40.1408 23.8085L40.1405 23.8096L40.3061 23.8527ZM39.1036 27.1092L38.9497 27.0347L38.8962 27.1453L38.9839 27.2314L39.1036 27.1092ZM43.3622 31.2843L43.4751 31.4128L43.6135 31.2912L43.4819 31.1622L43.3622 31.2843ZM26.5282 27.2261L26.3705 27.2923L26.3713 27.2941L26.5282 27.2261ZM27.1295 28.128L27.006 28.2463L27.0085 28.2489L27.1295 28.128ZM31.1876 28.6457L31.255 28.8029L31.2565 28.8022L31.1876 28.6457ZM32.6907 27.6771L32.8051 27.8042L32.9376 27.685L32.813 27.5575L32.6907 27.6771ZM28.3152 23.2014L28.4375 23.0818L28.3409 22.9831L28.2241 23.0566L28.3152 23.2014ZM27.4802 23.7859L27.3747 23.6512L27.3719 23.6535L27.4802 23.7859ZM26.8455 24.4372L26.7095 24.3335L26.7064 24.3378L26.8455 24.4372ZM26.4447 25.2221L26.2831 25.1661L26.2819 25.17L26.4447 25.2221ZM30.7868 16.1037L30.687 15.9648L30.6832 15.9677L30.7868 16.1037ZM31.5384 15.2019L31.3817 15.1333L31.3806 15.1357L31.5384 15.2019ZM31.5885 13.0976L31.4305 13.1634L31.433 13.1689L31.5885 13.0976ZM31.1041 12.3962L30.9798 12.514L30.9865 12.5204L31.1041 12.3962ZM30.4027 11.9119L30.3314 12.0675L30.337 12.0698L30.4027 11.9119ZM27.3299 13.0809L27.1733 13.012L27.172 13.0152L27.3299 13.0809ZM27.3967 15.252L27.2361 15.3111L27.2382 15.3162L27.3967 15.252ZM28.0814 16.2707L28.2013 16.1486L28.1974 16.145L28.0814 16.2707ZM29.0166 17.1892L28.8968 17.3112L28.9874 17.4003L29.0988 17.3392L29.0166 17.1892ZM29.9852 16.6381L30.0724 16.7852L29.9852 16.6381ZM39.6268 34.5551L36.2701 31.1148L36.0253 31.3537L39.382 34.7939L39.6268 34.5551ZM36.0298 31.1103C35.1309 31.9654 34.1115 32.6505 32.971 33.166L33.1118 33.4776C34.2871 32.9465 35.3385 32.2399 36.2655 31.3581L36.0298 31.1103ZM32.9717 33.1656C31.8496 33.6667 30.5879 33.919 29.1836 33.919V34.261C30.6295 34.261 31.9397 34.0011 33.1111 33.4779L32.9717 33.1656ZM29.1836 33.919C28.0686 33.919 27.0272 33.7223 26.058 33.3303L25.9297 33.6473C26.9422 34.0569 28.0274 34.261 29.1836 34.261V33.919ZM26.058 33.3303C25.086 32.9371 24.2417 32.3975 23.5233 31.7118L23.2872 31.9592C24.0384 32.6763 24.9199 33.2388 25.9297 33.6473L26.058 33.3303ZM23.5233 31.7118C22.8053 31.0263 22.2391 30.2156 21.8249 29.278L21.512 29.4162C21.9439 30.3936 22.5356 31.2418 23.2872 31.9592L23.5233 31.7118ZM21.8249 29.278C21.4119 28.3434 21.2048 27.3372 21.2048 26.2575H20.8628C20.8628 27.3823 21.0788 28.4358 21.512 29.4162L21.8249 29.278ZM21.2048 26.2575C21.2048 24.8711 21.5265 23.6497 22.1656 22.5881L21.8726 22.4117C21.198 23.5323 20.8628 24.816 20.8628 26.2575H21.2048ZM22.1656 22.5881C22.8089 21.5198 23.7045 20.5792 24.8565 19.7673L24.6595 19.4877C23.4734 20.3236 22.5432 21.2979 21.8726 22.4117L22.1656 22.5881ZM24.758 19.7985C24.815 19.7985 24.8569 19.7727 24.8737 19.7614C24.8952 19.7471 24.9139 19.7302 24.929 19.715L24.6872 19.4732C24.6801 19.4803 24.6793 19.48 24.684 19.4768C24.6866 19.4751 24.6934 19.4708 24.7039 19.4666C24.714 19.4626 24.7329 19.4565 24.758 19.4565V19.7985ZM24.9321 19.4763L24.6148 19.1423L24.3668 19.3779L24.6841 19.7119L24.9321 19.4763ZM24.6154 19.143C23.9374 18.4212 23.4142 17.6411 23.044 16.8028L22.7311 16.941C23.118 17.8173 23.6636 18.6293 24.3662 19.3772L24.6154 19.143ZM23.0447 16.8045C22.6877 15.9714 22.5075 15.0318 22.5075 13.9827H22.1654C22.1654 15.0714 22.3526 16.0578 22.7304 16.9393L23.0447 16.8045ZM22.5075 13.9827C22.5075 13.0935 22.6862 12.2488 23.0437 11.4471L22.7314 11.3078C22.3541 12.1539 22.1654 13.0461 22.1654 13.9827H22.5075ZM23.0437 11.4471C23.4023 10.6432 23.8962 9.93764 24.5261 9.32946L24.2885 9.08341C23.6269 9.7222 23.1077 10.464 22.7314 11.3078L23.0437 11.4471ZM24.5261 9.32943C25.1674 8.7099 25.9122 8.22038 26.7619 7.8609L26.6286 7.54591C25.7415 7.92124 24.961 8.43375 24.2885 9.08345L24.5261 9.32943ZM26.7612 7.8612C27.6183 7.50315 28.5476 7.3233 29.551 7.3233V6.98128C28.5058 6.98128 27.5313 7.16884 26.6293 7.54561L26.7612 7.8612ZM29.551 7.3233C30.6107 7.3233 31.567 7.50894 32.4227 7.87719L32.5579 7.56302C31.6544 7.17419 30.6512 6.98128 29.551 6.98128V7.3233ZM32.4227 7.87719C33.2834 8.24764 34.0161 8.74207 34.6228 9.35969L34.8668 9.11999C34.2266 8.46838 33.4562 7.94966 32.5579 7.56302L32.4227 7.87719ZM34.6239 9.36076C35.2311 9.96792 35.6971 10.6723 36.0226 11.4751L36.3395 11.3466C35.997 10.5017 35.5056 9.75872 34.8658 9.11892L34.6239 9.36076ZM36.0237 11.4777C36.3599 12.2694 36.5278 13.0929 36.5278 13.9493H36.8698C36.8698 13.0467 36.6926 12.1779 36.3385 11.344L36.0237 11.4777ZM36.5278 13.9493C36.5278 14.5574 36.4464 15.1426 36.284 15.7056L36.6126 15.8004C36.7842 15.2055 36.8698 14.5883 36.8698 13.9493H36.5278ZM36.2831 15.7085C36.131 16.2736 35.9139 16.7997 35.6322 17.2874L35.9283 17.4585C36.2255 16.9441 36.4538 16.3903 36.6134 15.7974L36.2831 15.7085ZM35.6308 17.2899C35.3585 17.7799 35.0375 18.2315 34.6675 18.645L34.9224 18.8731C35.3095 18.4404 35.6453 17.968 35.9297 17.456L35.6308 17.2899ZM34.669 18.6433C34.2979 19.0472 33.906 19.3953 33.4935 19.6885L33.6916 19.9673C34.1251 19.6592 34.5348 19.2948 34.9209 18.8748L34.669 18.6433ZM33.4939 19.6882C33.3033 19.8227 33.1183 19.9573 32.9388 20.0919L33.144 20.3655C33.3208 20.2329 33.5031 20.1003 33.6911 19.9676L33.4939 19.6882ZM32.9445 20.0878C32.7677 20.2093 32.5854 20.3309 32.3974 20.4525L32.5832 20.7397C32.7737 20.6164 32.9588 20.493 33.1383 20.3696L32.9445 20.0878ZM32.3701 20.7178L35.109 23.4232L35.3493 23.1799L32.6105 20.4744L32.3701 20.7178ZM35.3924 23.3524C35.5496 22.8472 35.6789 22.3638 35.7803 21.902L35.4462 21.8287C35.3472 22.2798 35.2204 22.7538 35.0658 23.2508L35.3924 23.3524ZM35.7796 21.9049C35.8918 21.4339 35.9817 20.99 36.0493 20.5734L35.7116 20.5186C35.6456 20.9259 35.5574 21.3616 35.4469 21.8257L35.7796 21.9049ZM35.8805 20.717H40.8739V20.375H35.8805V20.717ZM40.7033 20.5337C40.6262 21.6021 40.4389 22.6937 40.1408 23.8085L40.4713 23.8968C40.7745 22.7627 40.9657 21.6498 41.0444 20.5583L40.7033 20.5337ZM40.1405 23.8096C39.854 24.9119 39.4571 25.9869 38.9497 27.0347L39.2575 27.1838C39.7745 26.1162 40.1792 25.0201 40.4716 23.8957L40.1405 23.8096ZM38.9839 27.2314L43.2425 31.4065L43.4819 31.1622L39.2233 26.9871L38.9839 27.2314ZM43.2493 31.1559L39.3915 34.5461L39.6173 34.803L43.4751 31.4128L43.2493 31.1559ZM26.1401 26.1573C26.1401 26.5479 26.2172 26.9266 26.3705 27.2923L26.6859 27.16C26.5498 26.8354 26.4821 26.5016 26.4821 26.1573H26.1401ZM26.3713 27.2941C26.5243 27.6471 26.7361 27.9647 27.006 28.2463L27.2529 28.0096C27.0107 27.7568 26.8217 27.4732 26.6852 27.1582L26.3713 27.2941ZM27.0085 28.2489C27.2921 28.5325 27.6281 28.7561 28.0146 28.92L28.1482 28.6052C27.7998 28.4574 27.5012 28.2579 27.2504 28.007L27.0085 28.2489ZM28.0146 28.92C28.4059 29.086 28.8411 29.1674 29.3172 29.1674V28.8254C28.8804 28.8254 28.4916 28.7509 28.1482 28.6052L28.0146 28.92ZM29.3172 29.1674C30.0376 29.1674 30.6847 29.0473 31.255 28.8029L31.1203 28.4885C30.5995 28.7117 29.9996 28.8254 29.3172 28.8254V29.1674ZM31.2565 28.8022C31.8296 28.5501 32.346 28.2173 32.8051 27.8042L32.5763 27.5499C32.1447 27.9384 31.6591 28.2514 31.1188 28.4892L31.2565 28.8022ZM32.813 27.5575L28.4375 23.0818L28.1929 23.3209L32.5684 27.7966L32.813 27.5575ZM28.2241 23.0566C27.919 23.2487 27.6358 23.4469 27.3748 23.6512L27.5856 23.9205C27.8366 23.724 28.1102 23.5325 28.4063 23.3461L28.2241 23.0566ZM27.3719 23.6535C27.1174 23.8617 26.8963 24.0883 26.7095 24.3335L26.9816 24.5408C27.151 24.3184 27.3531 24.1108 27.5885 23.9182L27.3719 23.6535ZM26.7064 24.3378C26.5293 24.5858 26.3883 24.8622 26.2831 25.1662L26.6063 25.278C26.7015 25.003 26.8278 24.7562 26.9847 24.5366L26.7064 24.3378ZM26.2819 25.17C26.1865 25.4679 26.1401 25.7976 26.1401 26.1573H26.4821C26.4821 25.8268 26.5248 25.533 26.6076 25.2742L26.2819 25.17ZM30.8866 16.2426C31.2641 15.9713 31.5371 15.647 31.6961 15.268L31.3806 15.1357C31.2501 15.4471 31.0221 15.724 30.687 15.9648L30.8866 16.2426ZM31.695 15.2704C31.8623 14.8881 31.9432 14.4464 31.9432 13.9493H31.6011C31.6011 14.4098 31.5262 14.8031 31.3817 15.1333L31.695 15.2704ZM31.9432 13.9493C31.9432 13.6247 31.8769 13.3165 31.7439 13.0264L31.433 13.1689C31.545 13.4132 31.6011 13.6728 31.6011 13.9493H31.9432ZM31.7463 13.0319C31.6257 12.7424 31.4505 12.4888 31.2218 12.2721L30.9865 12.5204C31.1808 12.7044 31.3285 12.9184 31.4306 13.1634L31.7463 13.0319ZM31.2283 12.2786C31.0116 12.0498 30.7579 11.8746 30.4685 11.754L30.337 12.0698C30.582 12.1718 30.7959 12.3195 30.98 12.5138L31.2283 12.2786ZM30.474 11.7564C30.1839 11.6235 29.8756 11.5572 29.551 11.5572V11.8992C29.8276 11.8992 30.0871 11.9554 30.3315 12.0674L30.474 11.7564ZM29.551 11.5572C29.1768 11.5572 28.8327 11.6157 28.521 11.7356L28.6438 12.0548C28.911 11.952 29.2126 11.8992 29.551 11.8992V11.5572ZM28.521 11.7356C28.212 11.8544 27.9421 12.0219 27.7133 12.2387L27.9485 12.487C28.1428 12.3029 28.3738 12.1586 28.6438 12.0548L28.521 11.7356ZM27.7133 12.2387C27.4845 12.4554 27.3046 12.7138 27.1733 13.0121L27.4864 13.1498C27.6001 12.8914 27.7542 12.671 27.9485 12.487L27.7133 12.2387ZM27.172 13.0152C27.0513 13.3048 26.9918 13.6168 26.9918 13.9493H27.3339C27.3339 13.6584 27.3857 13.3915 27.4877 13.1467L27.172 13.0152ZM26.9918 13.9493C26.9918 14.4151 27.0734 14.8693 27.2362 15.3111L27.5571 15.1929C27.4081 14.7885 27.3339 14.3743 27.3339 13.9493H26.9918ZM27.2382 15.3162C27.4134 15.7485 27.6551 16.11 27.9654 16.3964L28.1974 16.145C27.9287 15.897 27.7139 15.5793 27.5551 15.1877L27.2382 15.3162ZM27.9615 16.3927L28.8968 17.3112L29.1364 17.0672L28.2012 16.1487L27.9615 16.3927ZM29.0988 17.3392C29.4454 17.1491 29.77 16.9644 30.0724 16.7852L29.898 16.491C29.5993 16.668 29.278 16.8508 28.9344 17.0393L29.0988 17.3392ZM30.0724 16.7852C30.3777 16.6043 30.6505 16.4225 30.8905 16.2397L30.6832 15.9677C30.4555 16.1411 30.194 16.3156 29.898 16.491L30.0724 16.7852Z" fill="black"/>
<path d="M37.143 19.5608H42.5623V21.8571H41.2262V29.9318H43.9818C44.0542 29.9318 44.1238 29.9123 44.1906 29.8733C44.2629 29.8288 44.3242 29.7731 44.3743 29.7063C44.4299 29.6395 44.4745 29.5671 44.5079 29.4892C44.5413 29.4113 44.558 29.3361 44.558 29.2638V27.5687H47.2634V32.2197H37.143V29.9318H38.454V21.8571H37.143V19.5608Z" fill="white"/>
<path d="M37.143 19.5608V19.3898H36.972V19.5608H37.143ZM42.5623 19.5608H42.7333V19.3898H42.5623V19.5608ZM42.5623 21.8571V22.0282H42.7333V21.8571H42.5623ZM41.2262 21.8571V21.6861H41.0552V21.8571H41.2262ZM41.2262 29.9318H41.0552V30.1028H41.2262V29.9318ZM44.1906 29.8733L44.2768 30.0211L44.2802 30.019L44.1906 29.8733ZM44.3743 29.7063L44.2427 29.5967L44.2375 29.6037L44.3743 29.7063ZM44.558 27.5687V27.3977H44.387V27.5687H44.558ZM47.2634 27.5687H47.4344V27.3977H47.2634V27.5687ZM47.2634 32.2197V32.3907H47.4344V32.2197H47.2634ZM37.143 32.2197H36.972V32.3907H37.143V32.2197ZM37.143 29.9318V29.7608H36.972V29.9318H37.143ZM38.454 29.9318V30.1028H38.625V29.9318H38.454ZM38.454 21.8571H38.625V21.6861H38.454V21.8571ZM37.143 21.8571H36.972V22.0282H37.143V21.8571ZM37.143 19.7318H42.5623V19.3898H37.143V19.7318ZM42.3913 19.5608V21.8571H42.7333V19.5608H42.3913ZM42.5623 21.6861H41.2262V22.0282H42.5623V21.6861ZM41.0552 21.8571V29.9318H41.3973V21.8571H41.0552ZM41.2262 30.1028H43.9818V29.7608H41.2262V30.1028ZM43.9818 30.1028C44.0865 30.1028 44.1856 30.0742 44.2767 30.021L44.1044 29.7256C44.0619 29.7504 44.0218 29.7608 43.9818 29.7608V30.1028ZM44.2802 30.019C44.3705 29.9634 44.4479 29.8932 44.5111 29.8089L44.2375 29.6037C44.2005 29.653 44.1553 29.6942 44.1009 29.7277L44.2802 30.019ZM44.5056 29.8158C44.5716 29.7366 44.625 29.6501 44.6651 29.5566L44.3507 29.4218C44.324 29.4842 44.2882 29.5424 44.2429 29.5968L44.5056 29.8158ZM44.6651 29.5566C44.706 29.461 44.729 29.3629 44.729 29.2638H44.387C44.387 29.3093 44.3765 29.3616 44.3507 29.4218L44.6651 29.5566ZM44.729 29.2638V27.5687H44.387V29.2638H44.729ZM44.558 27.7397H47.2634V27.3977H44.558V27.7397ZM47.0924 27.5687V32.2197H47.4344V27.5687H47.0924ZM47.2634 32.0487H37.143V32.3907H47.2634V32.0487ZM37.314 32.2197V29.9318H36.972V32.2197H37.314ZM37.143 30.1028H38.454V29.7608H37.143V30.1028ZM38.625 29.9318V21.8571H38.283V29.9318H38.625ZM38.454 21.6861H37.143V22.0282H38.454V21.6861ZM37.314 21.8571V19.5608H36.972V21.8571H37.314Z" fill="black"/>
<path d="M13.7478 18.0491L19.5929 18.0514C20.2442 18.0516 20.8426 18.1548 21.3881 18.361C21.9335 18.5616 22.4038 18.8346 22.7989 19.1799C23.194 19.5251 23.5029 19.9233 23.7254 20.3743C23.9479 20.8253 24.059 21.2957 24.0588 21.7856C24.0586 22.3757 23.9693 22.9295 23.791 23.4472C23.6182 23.9593 23.3481 24.4045 22.9805 24.7829C22.613 25.1613 22.148 25.4617 21.5857 25.6842C21.0234 25.9011 20.3581 26.0094 19.5899 26.0091L17.828 26.0084L17.8271 28.4216L18.9877 28.4221L18.9869 30.71L13.7429 30.708L13.7438 28.4201L15.0548 28.4206L15.0579 20.3459L13.7469 20.3454L13.7478 18.0491ZM17.8301 20.347L17.8288 23.7455L18.9728 23.746C19.6074 23.7462 20.1113 23.6128 20.4844 23.3457C20.8574 23.0787 21.0441 22.6557 21.0443 22.0767C21.0445 21.5367 20.8693 21.1136 20.5187 20.8073C20.1681 20.501 19.6533 20.3477 18.9741 20.3474L17.8301 20.347Z" fill="white"/>
<path d="M13.7478 18.0491L13.7478 17.8781L13.5768 17.8781L13.5767 18.0491L13.7478 18.0491ZM21.3881 18.361L21.3276 18.521L21.329 18.5215L21.3881 18.361ZM23.791 23.4472L23.6293 23.3915L23.6289 23.3925L23.791 23.4472ZM21.5857 25.6842L21.6472 25.8438L21.6486 25.8432L21.5857 25.6842ZM17.828 26.0084L17.828 25.8374L17.657 25.8373L17.657 26.0084L17.828 26.0084ZM17.8271 28.4216L17.656 28.4216L17.656 28.5926L17.827 28.5926L17.8271 28.4216ZM18.9877 28.4221L19.1587 28.4221L19.1588 28.2511L18.9878 28.2511L18.9877 28.4221ZM18.9869 30.71L18.9868 30.881L19.1578 30.8811L19.1579 30.7101L18.9869 30.71ZM13.7429 30.708L13.5719 30.708L13.5719 30.879L13.7429 30.879L13.7429 30.708ZM13.7438 28.4201L13.7439 28.2491L13.5729 28.249L13.5728 28.42L13.7438 28.4201ZM15.0548 28.4206L15.0547 28.5916L15.2257 28.5917L15.2258 28.4206L15.0548 28.4206ZM15.0579 20.3459L15.2289 20.346L15.2289 20.175L15.0579 20.1749L15.0579 20.3459ZM13.7469 20.3454L13.5759 20.3454L13.5758 20.5164L13.7468 20.5165L13.7469 20.3454ZM17.8301 20.347L17.8302 20.176L17.6592 20.1759L17.6591 20.3469L17.8301 20.347ZM17.8288 23.7455L17.6578 23.7455L17.6578 23.9165L17.8288 23.9165L17.8288 23.7455ZM20.4844 23.3457L20.5839 23.4848L20.4844 23.3457ZM13.7477 18.2202L19.5928 18.2224L19.593 17.8804L13.7478 17.8781L13.7477 18.2202ZM19.5928 18.2224C20.2259 18.2226 20.8036 18.3229 21.3276 18.521L21.4485 18.201C20.8816 17.9868 20.2625 17.8806 19.593 17.8804L19.5928 18.2224ZM21.329 18.5215C21.857 18.7157 22.3086 18.9785 22.6864 19.3086L22.9115 19.0511C22.499 18.6906 22.0101 18.4076 21.4471 18.2005L21.329 18.5215ZM22.6864 19.3086C23.0653 19.6397 23.3599 20.0201 23.572 20.45L23.8787 20.2986C23.6458 19.8265 23.3228 19.4106 22.9115 19.0511L22.6864 19.3086ZM23.572 20.45C23.7832 20.878 23.888 21.3226 23.8878 21.7855L24.2298 21.7857C24.23 21.2688 24.1125 20.7725 23.8787 20.2986L23.572 20.45ZM23.8878 21.7855C23.8876 22.3582 23.801 22.8931 23.6293 23.3915L23.9527 23.5029C24.1376 22.966 24.2296 22.3932 24.2298 21.7857L23.8878 21.7855ZM23.6289 23.3925C23.4641 23.881 23.2072 24.3041 22.8578 24.6638L23.1032 24.9021C23.4889 24.5049 23.7723 24.0375 23.953 23.5019L23.6289 23.3925ZM22.8578 24.6638C22.5095 25.0224 22.0659 25.3103 21.5228 25.5252L21.6486 25.8432C22.2302 25.6131 22.7165 25.3002 23.1032 24.9021L22.8578 24.6638ZM21.5241 25.5246C20.986 25.7322 20.3426 25.8384 19.5899 25.8381L19.5898 26.1801C20.3736 26.1804 21.0607 26.07 21.6472 25.8438L21.5241 25.5246ZM19.5899 25.8381L17.828 25.8374L17.8279 26.1794L19.5898 26.1801L19.5899 25.8381ZM17.657 26.0084L17.656 28.4216L17.9981 28.4217L17.999 26.0085L17.657 26.0084ZM17.827 28.5926L18.9877 28.5931L18.9878 28.2511L17.8271 28.2506L17.827 28.5926ZM18.8167 28.422L18.8159 30.71L19.1579 30.7101L19.1587 28.4221L18.8167 28.422ZM18.9869 30.539L13.743 30.537L13.7429 30.879L18.9868 30.881L18.9869 30.539ZM13.914 30.7081L13.9148 28.4201L13.5728 28.42L13.5719 30.708L13.914 30.7081ZM13.7438 28.5911L15.0547 28.5916L15.0549 28.2496L13.7439 28.2491L13.7438 28.5911ZM15.2258 28.4206L15.2289 20.346L14.8869 20.3459L14.8838 28.4205L15.2258 28.4206ZM15.0579 20.1749L13.747 20.1744L13.7468 20.5165L15.0578 20.517L15.0579 20.1749ZM13.9179 20.3455L13.9188 18.0492L13.5767 18.0491L13.5759 20.3454L13.9179 20.3455ZM17.6591 20.3469L17.6578 23.7455L17.9998 23.7456L18.0011 20.3471L17.6591 20.3469ZM17.8288 23.9165L18.9727 23.917L18.9729 23.5749L17.8289 23.5745L17.8288 23.9165ZM18.9727 23.917C19.6297 23.9172 20.1725 23.7793 20.5839 23.4848L20.3848 23.2067C20.05 23.4463 19.5851 23.5752 18.9729 23.5749L18.9727 23.917ZM20.5839 23.4848C21.0135 23.1773 21.2151 22.6948 21.2153 22.0768L20.8733 22.0766C20.8731 22.6165 20.7014 22.98 20.3848 23.2067L20.5839 23.4848ZM21.2153 22.0768C21.2155 21.4961 21.0251 21.0226 20.6312 20.6785L20.4062 20.9361C20.7135 21.2045 20.8735 21.5773 20.8733 22.0766L21.2153 22.0768ZM20.6312 20.6785C20.2379 20.3348 19.6761 20.1767 18.9742 20.1764L18.974 20.5184C19.6304 20.5187 20.0984 20.6671 20.4062 20.9361L20.6312 20.6785ZM18.9742 20.1764L17.8302 20.176L17.8301 20.518L18.974 20.5184L18.9742 20.1764Z" fill="black"/>
<path d="M69.8055 23.5329C69.8055 24.2692 69.6365 24.9452 69.2985 25.5609C68.9605 26.1644 68.4414 26.6533 67.7413 27.0275C67.0412 27.4017 66.172 27.5889 65.1339 27.5889H63.2145V32.1519H60.1182V19.4406H65.1339C66.1479 19.4406 67.0049 19.6157 67.7051 19.9657C68.4052 20.3158 68.9303 20.7987 69.2804 21.4143C69.6305 22.03 69.8055 22.7361 69.8055 23.5329ZM64.8985 25.1263C65.49 25.1263 65.9306 24.9875 66.2203 24.7098C66.51 24.4322 66.6549 24.0399 66.6549 23.5329C66.6549 23.0259 66.51 22.6335 66.2203 22.3559C65.9306 22.0782 65.49 21.9394 64.8985 21.9394H63.2145V25.1263H64.8985ZM74.5138 18.7526V32.1519H71.4175V18.7526H74.5138ZM76.142 27.0819C76.142 26.0437 76.3352 25.1323 76.7215 24.3477C77.1198 23.563 77.657 22.9595 78.333 22.537C79.009 22.1145 79.7635 21.9032 80.5964 21.9032C81.3086 21.9032 81.9303 22.0481 82.4614 22.3378C83.0046 22.6275 83.4211 23.0077 83.7108 23.4785V22.0481H86.8071V32.1519H83.7108V30.7214C83.409 31.1922 82.9865 31.5724 82.4433 31.8621C81.9122 32.1519 81.2905 32.2967 80.5783 32.2967C79.7574 32.2967 79.009 32.0855 78.333 31.663C77.657 31.2284 77.1198 30.6188 76.7215 29.8341C76.3352 29.0374 76.142 28.12 76.142 27.0819ZM83.7108 27.1C83.7108 26.3274 83.4935 25.7178 83.059 25.2711C82.6365 24.8245 82.1174 24.6012 81.5017 24.6012C80.8861 24.6012 80.361 24.8245 79.9264 25.2711C79.5039 25.7057 79.2927 26.3093 79.2927 27.0819C79.2927 27.8544 79.5039 28.4701 79.9264 28.9288C80.361 29.3754 80.8861 29.5987 81.5017 29.5987C82.1174 29.5987 82.6365 29.3754 83.059 28.9288C83.4935 28.4821 83.7108 27.8725 83.7108 27.1ZM99.3683 22.0481L93.0308 36.9502H89.699L92.0168 31.8078L87.9064 22.0481H91.3649L93.7007 28.3675L96.0184 22.0481H99.3683ZM110.211 32.1519L109.035 31.0111C107.864 31.9044 106.463 32.351 104.834 32.351C103.856 32.351 103.005 32.1941 102.281 31.8802C101.556 31.5543 100.995 31.1016 100.597 30.5222C100.21 29.9307 100.017 29.2426 100.017 28.458C100.017 27.6613 100.228 26.943 100.651 26.3032C101.085 25.6514 101.731 25.1202 102.588 24.7098C102.275 24.3235 102.051 23.9554 101.918 23.6053C101.786 23.2431 101.719 22.8508 101.719 22.4283C101.719 21.8247 101.876 21.2755 102.19 20.7806C102.504 20.2856 102.957 19.8994 103.548 19.6217C104.152 19.332 104.864 19.1871 105.685 19.1871C106.518 19.1871 107.224 19.338 107.803 19.6398C108.383 19.9416 108.817 20.346 109.107 20.853C109.397 21.36 109.529 21.9153 109.505 22.5189H106.59C106.602 22.1929 106.518 21.9455 106.337 21.7765C106.168 21.5954 105.938 21.5049 105.648 21.5049C105.359 21.5049 105.117 21.5894 104.924 21.7584C104.731 21.9274 104.634 22.1446 104.634 22.4102C104.634 22.6637 104.713 22.9293 104.87 23.2069C105.039 23.4846 105.298 23.8045 105.648 24.1666L108.745 27.1905C108.769 27.1301 108.799 27.0577 108.835 26.9732C108.884 26.8887 108.932 26.7921 108.98 26.6835L109.65 25.5427H112.746L111.877 27.1181C111.551 27.8303 111.177 28.5063 110.755 29.1461L113.815 32.1519H110.211ZM104.979 29.8522C105.787 29.8522 106.506 29.6229 107.133 29.1642L104.309 26.43C103.439 26.8766 103.005 27.4802 103.005 28.2407C103.005 28.6994 103.18 29.0857 103.53 29.3996C103.892 29.7014 104.375 29.8522 104.979 29.8522ZM118.031 29.7617H122.087V32.1519H114.935V19.4406H118.031V29.7617ZM133.088 26.937C133.088 27.2267 133.07 27.5285 133.034 27.8424H126.026C126.075 28.4701 126.274 28.9529 126.624 29.2909C126.986 29.6169 127.427 29.7798 127.946 29.7798C128.718 29.7798 129.256 29.4539 129.557 28.802H132.853C132.684 29.466 132.376 30.0635 131.929 30.5946C131.495 31.1258 130.946 31.5422 130.282 31.844C129.618 32.1458 128.875 32.2967 128.054 32.2967C127.065 32.2967 126.183 32.0855 125.411 31.663C124.638 31.2405 124.035 30.6369 123.6 29.8522C123.166 29.0676 122.948 28.1502 122.948 27.1C122.948 26.0497 123.16 25.1323 123.582 24.3477C124.017 23.563 124.62 22.9595 125.393 22.537C126.165 22.1145 127.053 21.9032 128.054 21.9032C129.032 21.9032 129.901 22.1084 130.662 22.5189C131.422 22.9293 132.014 23.5147 132.436 24.2752C132.871 25.0357 133.088 25.923 133.088 26.937ZM129.92 26.1222C129.92 25.591 129.738 25.1685 129.376 24.8547C129.014 24.5408 128.561 24.3839 128.018 24.3839C127.499 24.3839 127.059 24.5348 126.696 24.8366C126.346 25.1384 126.129 25.5669 126.045 26.1222H129.92ZM134.106 27.0819C134.106 26.0437 134.299 25.1323 134.686 24.3477C135.084 23.563 135.621 22.9595 136.297 22.537C136.973 22.1145 137.728 21.9032 138.56 21.9032C139.273 21.9032 139.894 22.0481 140.425 22.3378C140.969 22.6275 141.385 23.0077 141.675 23.4785V22.0481H144.771V32.1519H141.675V30.7214C141.373 31.1922 140.951 31.5724 140.407 31.8621C139.876 32.1519 139.255 32.2967 138.542 32.2967C137.721 32.2967 136.973 32.0855 136.297 31.663C135.621 31.2284 135.084 30.6188 134.686 29.8341C134.299 29.0374 134.106 28.12 134.106 27.0819ZM141.675 27.1C141.675 26.3274 141.458 25.7178 141.023 25.2711C140.601 24.8245 140.081 24.6012 139.466 24.6012C138.85 24.6012 138.325 24.8245 137.89 25.2711C137.468 25.7057 137.257 26.3093 137.257 27.0819C137.257 27.8544 137.468 28.4701 137.89 28.9288C138.325 29.3754 138.85 29.5987 139.466 29.5987C140.081 29.5987 140.601 29.3754 141.023 28.9288C141.458 28.4821 141.675 27.8725 141.675 27.1ZM150.108 23.732C150.47 23.1767 150.922 22.7422 151.466 22.4283C152.009 22.1024 152.612 21.9394 153.276 21.9394V25.2168H152.425C151.653 25.2168 151.073 25.3858 150.687 25.7238C150.301 26.0497 150.108 26.6292 150.108 27.4621V32.1519H147.011V22.0481H150.108V23.732ZM160.913 21.9394C162.096 21.9394 163.037 22.3257 163.737 23.0983C164.45 23.8588 164.806 24.909 164.806 26.2489V32.1519H161.728V26.6654C161.728 25.9894 161.553 25.4643 161.202 25.0901C160.852 24.7159 160.382 24.5287 159.79 24.5287C159.199 24.5287 158.728 24.7159 158.378 25.0901C158.028 25.4643 157.853 25.9894 157.853 26.6654V32.1519H154.756V22.0481H157.853V23.388C158.166 22.9414 158.589 22.5913 159.12 22.3378C159.651 22.0722 160.249 21.9394 160.913 21.9394Z" fill="#4C524A"/>
</g>
<defs>
<radialGradient id="paint0_angular_189_1173" cx="0" cy="0" r="1" gradientUnits="userSpaceOnUse" gradientTransform="translate(28.7366 25.6518) rotate(48.8251) scale(41.6906)">
<stop stop-color="#6F8695"/>
<stop offset="1" stop-color="#6F8695" stop-opacity="0"/>
</radialGradient>
<clipPath id="clip0_189_1173">
<rect width="169" height="51.3036" fill="white"/>
</clipPath>
</defs>
</svg>
