<svg width="300" height="300" viewBox="0 0 300 300" fill="none" xmlns="http://www.w3.org/2000/svg">
<circle cx="150" cy="150" r="150" fill="url(#paint0_angular_219_209)"/>
<path d="M212.965 225.785L193.336 205.668C187.997 210.746 181.943 214.815 175.172 217.875C168.466 220.87 160.947 222.367 152.613 222.367C145.973 222.367 139.755 221.195 133.961 218.852C128.167 216.508 123.121 213.285 118.824 209.184C114.527 205.082 111.142 200.232 108.668 194.633C106.194 189.034 104.957 183.012 104.957 176.566C104.957 168.298 106.878 160.974 110.719 154.594C114.56 148.214 119.898 142.615 126.734 137.797C126.799 137.797 126.897 137.732 127.027 137.602L125.172 135.648C121.135 131.352 118.01 126.697 115.797 121.684C113.648 116.671 112.574 111.039 112.574 104.789C112.574 99.4505 113.648 94.3724 115.797 89.5547C117.945 84.737 120.908 80.5052 124.684 76.8594C128.525 73.1484 132.984 70.2188 138.062 68.0703C143.206 65.9219 148.772 64.8477 154.762 64.8477C161.077 64.8477 166.806 65.9544 171.949 68.168C177.092 70.3815 181.487 73.3438 185.133 77.0547C188.779 80.7005 191.578 84.9323 193.531 89.75C195.549 94.5026 196.559 99.4505 196.559 104.594C196.559 108.24 196.07 111.755 195.094 115.141C194.182 118.526 192.88 121.684 191.188 124.613C189.56 127.543 187.639 130.245 185.426 132.719C183.212 135.128 180.868 137.211 178.395 138.969C177.288 139.75 176.214 140.531 175.172 141.312C174.13 142.029 173.056 142.745 171.949 143.461L187.965 159.281C188.876 156.352 189.625 153.552 190.211 150.883C190.862 148.148 191.383 145.577 191.773 143.168H220.973C220.517 149.483 219.41 155.928 217.652 162.504C215.96 169.014 213.616 175.362 210.621 181.547L235.523 205.961L212.965 225.785ZM135.816 175.98C135.816 178.129 136.24 180.212 137.086 182.23C137.932 184.184 139.104 185.941 140.602 187.504C142.164 189.066 144.02 190.303 146.168 191.215C148.316 192.126 150.725 192.582 153.395 192.582C157.496 192.582 161.142 191.898 164.332 190.531C167.587 189.099 170.517 187.211 173.121 184.867L147.535 158.695C145.777 159.802 144.15 160.941 142.652 162.113C141.22 163.285 139.983 164.555 138.941 165.922C137.965 167.289 137.184 168.819 136.598 170.512C136.077 172.139 135.816 173.962 135.816 175.98ZM161.988 117.191C164.072 115.694 165.536 113.936 166.383 111.918C167.294 109.835 167.75 107.393 167.75 104.594C167.75 102.836 167.392 101.176 166.676 99.6133C166.025 98.0508 165.081 96.6836 163.844 95.5117C162.672 94.2747 161.305 93.3307 159.742 92.6797C158.18 91.9635 156.52 91.6055 154.762 91.6055C152.678 91.6055 150.79 91.931 149.098 92.582C147.405 93.2331 145.94 94.1445 144.703 95.3164C143.466 96.4883 142.49 97.888 141.773 99.5156C141.122 101.078 140.797 102.771 140.797 104.594C140.797 107.198 141.253 109.737 142.164 112.211C143.141 114.62 144.475 116.605 146.168 118.168L151.637 123.539C153.655 122.432 155.543 121.358 157.301 120.316C159.059 119.275 160.621 118.233 161.988 117.191Z" fill="#98CE00"/>
<path d="M212.965 225.785L212.249 226.484L212.912 227.163L213.625 226.536L212.965 225.785ZM193.336 205.668L194.052 204.97L193.362 204.263L192.647 204.943L193.336 205.668ZM175.172 217.875L175.58 218.788L175.584 218.786L175.172 217.875ZM126.734 137.797V136.797H126.417L126.158 136.979L126.734 137.797ZM127.027 137.602L127.734 138.309L128.424 137.619L127.752 136.913L127.027 137.602ZM125.172 135.648L124.443 136.333L124.447 136.337L125.172 135.648ZM115.797 121.684L114.878 122.078L114.882 122.088L115.797 121.684ZM115.797 89.5547L114.884 89.1474L115.797 89.5547ZM124.684 76.8594L125.378 77.5788L125.378 77.5786L124.684 76.8594ZM138.062 68.0703L137.677 67.1476L137.673 67.1493L138.062 68.0703ZM185.133 77.0547L184.419 77.7555L184.426 77.7618L185.133 77.0547ZM193.531 89.75L192.605 90.1257L192.608 90.1333L192.611 90.1409L193.531 89.75ZM195.094 115.141L194.133 114.863L194.13 114.872L194.128 114.881L195.094 115.141ZM191.188 124.613L190.322 124.113L190.317 124.12L190.313 124.128L191.188 124.613ZM185.426 132.719L186.162 133.395L186.171 133.386L185.426 132.719ZM178.395 138.969L178.971 139.786L178.974 139.784L178.395 138.969ZM175.172 141.312L175.738 142.137L175.755 142.125L175.772 142.113L175.172 141.312ZM171.949 143.461L171.406 142.621L170.361 143.298L171.246 144.172L171.949 143.461ZM187.965 159.281L187.262 159.993L188.431 161.148L188.92 159.578L187.965 159.281ZM190.211 150.883L189.238 150.651L189.236 150.66L189.234 150.668L190.211 150.883ZM191.773 143.168V142.168H190.923L190.786 143.008L191.773 143.168ZM220.973 143.168L221.97 143.24L222.047 142.168H220.973V143.168ZM217.652 162.504L216.686 162.246L216.685 162.252L217.652 162.504ZM210.621 181.547L209.721 181.111L209.408 181.758L209.921 182.261L210.621 181.547ZM235.523 205.961L236.184 206.712L236.993 206.001L236.224 205.247L235.523 205.961ZM137.086 182.23L136.164 182.617L136.168 182.628L137.086 182.23ZM140.602 187.504L139.88 188.196L139.887 188.203L139.894 188.211L140.602 187.504ZM164.332 190.531L164.726 191.45L164.735 191.447L164.332 190.531ZM173.121 184.867L173.79 185.61L174.565 184.913L173.836 184.168L173.121 184.867ZM147.535 158.695L148.25 157.996L147.686 157.419L147.002 157.849L147.535 158.695ZM142.652 162.113L142.036 161.326L142.027 161.332L142.019 161.339L142.652 162.113ZM138.941 165.922L138.146 165.316L138.137 165.328L138.128 165.341L138.941 165.922ZM136.598 170.512L135.653 170.185L135.649 170.196L135.645 170.207L136.598 170.512ZM161.988 117.191L161.405 116.379L161.393 116.388L161.382 116.396L161.988 117.191ZM166.383 111.918L165.467 111.517L165.464 111.524L165.461 111.531L166.383 111.918ZM166.676 99.6133L165.753 99.9979L165.759 100.014L165.767 100.03L166.676 99.6133ZM163.844 95.5117L163.118 96.1995L163.136 96.2191L163.156 96.2377L163.844 95.5117ZM159.742 92.6797L159.326 93.5888L159.341 93.596L159.358 93.6028L159.742 92.6797ZM149.098 92.582L149.457 93.5154L149.098 92.582ZM141.773 99.5156L140.858 99.1129L140.854 99.1219L140.85 99.131L141.773 99.5156ZM142.164 112.211L141.226 112.557L141.231 112.572L141.237 112.587L142.164 112.211ZM146.168 118.168L146.869 117.455L146.858 117.444L146.846 117.433L146.168 118.168ZM151.637 123.539L150.936 124.253L151.466 124.773L152.118 124.416L151.637 123.539ZM157.301 120.316L157.811 121.177L157.301 120.316ZM213.681 225.087L194.052 204.97L192.62 206.366L212.249 226.484L213.681 225.087ZM192.647 204.943C187.39 209.944 181.429 213.95 174.76 216.964L175.584 218.786C182.456 215.681 188.605 211.549 194.025 206.393L192.647 204.943ZM174.764 216.962C168.203 219.892 160.825 221.367 152.613 221.367V223.367C161.068 223.367 168.729 221.847 175.58 218.788L174.764 216.962ZM152.613 221.367C146.093 221.367 140.004 220.217 134.336 217.925L133.586 219.779C139.507 222.173 145.852 223.367 152.613 223.367V221.367ZM134.336 217.925C128.653 215.626 123.715 212.47 119.515 208.46L118.134 209.907C122.527 214.1 127.681 217.39 133.586 219.779L134.336 217.925ZM119.515 208.46C115.316 204.452 112.005 199.711 109.583 194.229L107.753 195.037C110.279 200.752 113.739 205.712 118.134 209.907L119.515 208.46ZM109.583 194.229C107.168 188.764 105.957 182.88 105.957 176.566H103.957C103.957 183.143 105.22 189.304 107.753 195.037L109.583 194.229ZM105.957 176.566C105.957 168.459 107.838 161.317 111.575 155.11L109.862 154.078C105.917 160.631 103.957 168.137 103.957 176.566H105.957ZM111.575 155.11C115.337 148.862 120.574 143.362 127.31 138.614L126.158 136.979C119.223 141.867 113.783 147.565 109.862 154.078L111.575 155.11ZM126.734 138.797C127.068 138.797 127.313 138.646 127.411 138.58C127.537 138.497 127.646 138.397 127.734 138.309L126.32 136.894C126.279 136.936 126.274 136.934 126.302 136.916C126.317 136.906 126.357 136.881 126.418 136.856C126.477 136.832 126.588 136.797 126.734 136.797V138.797ZM127.752 136.913L125.897 134.96L124.447 136.337L126.302 138.29L127.752 136.913ZM125.901 134.964C121.936 130.743 118.876 126.182 116.712 121.28L114.882 122.088C117.145 127.212 120.335 131.96 124.443 136.333L125.901 134.964ZM116.716 121.29C114.628 116.418 113.574 110.923 113.574 104.789H111.574C111.574 111.155 112.669 116.923 114.878 122.078L116.716 121.29ZM113.574 104.789C113.574 99.5891 114.62 94.6499 116.71 89.962L114.884 89.1474C112.677 94.0949 111.574 99.3119 111.574 104.789H113.574ZM116.71 89.962C118.807 85.2608 121.695 81.1351 125.378 77.5788L123.989 76.14C120.12 79.8753 117.084 84.2132 114.884 89.1474L116.71 89.962ZM125.378 77.5786C129.128 73.9559 133.484 71.0934 138.452 68.9913L137.673 67.1493C132.485 69.3441 127.921 72.341 123.989 76.1402L125.378 77.5786ZM138.448 68.993C143.46 66.8993 148.894 65.8477 154.762 65.8477V63.8477C148.65 63.8477 142.951 64.9444 137.677 67.1476L138.448 68.993ZM154.762 65.8477C160.958 65.8477 166.551 66.9332 171.554 69.0865L172.345 67.2494C167.061 64.9757 161.195 63.8477 154.762 63.8477V65.8477ZM171.554 69.0865C176.587 71.2527 180.871 74.1439 184.419 77.7555L185.846 76.3539C182.103 72.5436 177.598 69.5103 172.345 67.2494L171.554 69.0865ZM184.426 77.7618C187.976 81.3122 190.701 85.431 192.605 90.1257L194.458 89.3743C192.455 84.4336 189.581 80.0889 185.84 76.3476L184.426 77.7618ZM192.611 90.1409C194.577 94.7703 195.559 99.5854 195.559 104.594H197.559C197.559 99.3157 196.522 94.2349 194.452 89.3591L192.611 90.1409ZM195.559 104.594C195.559 108.149 195.083 111.571 194.133 114.863L196.055 115.418C197.058 111.939 197.559 108.33 197.559 104.594H195.559ZM194.128 114.881C193.238 118.185 191.969 121.261 190.322 124.113L192.053 125.114C193.791 122.106 195.126 118.867 196.059 115.401L194.128 114.881ZM190.313 124.128C188.721 126.993 186.844 129.634 184.681 132.052L186.171 133.386C188.435 130.856 190.398 128.093 192.062 125.099L190.313 124.128ZM184.689 132.042C182.52 134.403 180.228 136.439 177.815 138.154L178.974 139.784C181.509 137.983 183.905 135.852 186.162 133.395L184.689 132.042ZM177.818 138.152C176.704 138.938 175.622 139.725 174.572 140.512L175.772 142.113C176.806 141.337 177.872 140.562 178.971 139.786L177.818 138.152ZM174.605 140.488C173.572 141.199 172.505 141.91 171.406 142.621L172.492 144.301C173.607 143.58 174.689 142.858 175.738 142.137L174.605 140.488ZM171.246 144.172L187.262 159.993L188.668 158.57L172.652 142.75L171.246 144.172ZM188.92 159.578C189.839 156.625 190.595 153.797 191.188 151.097L189.234 150.668C188.655 153.307 187.914 156.078 187.01 158.984L188.92 159.578ZM191.184 151.114C191.84 148.36 192.365 145.764 192.761 143.328L190.786 143.008C190.4 145.389 189.884 147.937 189.238 150.651L191.184 151.114ZM191.773 144.168H220.973V142.168H191.773V144.168ZM219.975 143.096C219.524 149.344 218.429 155.727 216.686 162.246L218.618 162.762C220.391 156.13 221.509 149.622 221.97 143.24L219.975 143.096ZM216.685 162.252C215.009 168.698 212.688 174.984 209.721 181.111L211.521 181.983C214.544 175.74 216.911 169.331 218.62 162.756L216.685 162.252ZM209.921 182.261L234.823 206.675L236.224 205.247L211.321 180.833L209.921 182.261ZM234.863 205.21L212.305 225.034L213.625 226.536L236.184 206.712L234.863 205.21ZM134.816 175.98C134.816 178.264 135.267 180.479 136.164 182.617L138.008 181.844C137.212 179.946 136.816 177.994 136.816 175.98H134.816ZM136.168 182.628C137.063 184.692 138.301 186.549 139.88 188.196L141.324 186.812C139.907 185.334 138.802 183.675 138.003 181.833L136.168 182.628ZM139.894 188.211C141.553 189.869 143.517 191.177 145.777 192.135L146.559 190.294C144.522 189.43 142.775 188.263 141.309 186.797L139.894 188.211ZM145.777 192.135C148.066 193.106 150.61 193.582 153.395 193.582V191.582C150.84 191.582 148.567 191.146 146.559 190.294L145.777 192.135ZM153.395 193.582C157.607 193.582 161.391 192.88 164.726 191.45L163.938 189.612C160.893 190.917 157.385 191.582 153.395 191.582V193.582ZM164.735 191.447C168.086 189.972 171.106 188.026 173.79 185.61L172.452 184.124C169.928 186.395 167.089 188.226 163.929 189.616L164.735 191.447ZM173.836 184.168L148.25 157.996L146.82 159.394L172.406 185.566L173.836 184.168ZM147.002 157.849C145.218 158.972 143.563 160.131 142.036 161.326L143.269 162.901C144.737 161.752 146.336 160.632 148.068 159.542L147.002 157.849ZM142.019 161.339C140.531 162.557 139.238 163.882 138.146 165.316L139.737 166.528C140.728 165.227 141.909 164.013 143.286 162.887L142.019 161.339ZM138.128 165.341C137.092 166.791 136.268 168.407 135.653 170.185L137.543 170.839C138.099 169.231 138.838 167.787 139.755 166.503L138.128 165.341ZM135.645 170.207C135.088 171.949 134.816 173.877 134.816 175.98H136.816C136.816 174.047 137.066 172.33 137.55 170.816L135.645 170.207ZM162.572 118.003C164.779 116.417 166.376 114.521 167.305 112.305L165.461 111.531C164.697 113.352 163.364 114.971 161.405 116.379L162.572 118.003ZM167.299 112.319C168.277 110.083 168.75 107.5 168.75 104.594H166.75C166.75 107.286 166.312 109.586 165.467 111.517L167.299 112.319ZM168.75 104.594C168.75 102.695 168.362 100.893 167.585 99.1966L165.767 100.03C166.422 101.459 166.75 102.976 166.75 104.594H168.75ZM167.599 99.2287C166.894 97.5363 165.869 96.0531 164.531 94.7858L163.156 96.2377C164.292 97.3141 165.156 98.5652 165.753 99.9979L167.599 99.2287ZM164.57 94.824C163.302 93.4863 161.819 92.4618 160.127 91.7566L159.358 93.6028C160.79 94.1997 162.041 95.0632 163.118 96.1995L164.57 94.824ZM160.159 91.7706C158.463 90.9932 156.66 90.6055 154.762 90.6055V92.6055C156.379 92.6055 157.897 92.9339 159.326 93.5888L160.159 91.7706ZM154.762 90.6055C152.574 90.6055 150.562 90.9475 148.739 91.6487L149.457 93.5154C151.019 92.9144 152.783 92.6055 154.762 92.6055V90.6055ZM148.739 91.6487C146.932 92.3436 145.353 93.3229 144.015 94.5905L145.391 96.0424C146.527 94.9661 147.878 94.1225 149.457 93.5154L148.739 91.6487ZM144.015 94.5905C142.678 95.8578 141.625 97.3689 140.858 99.1129L142.689 99.9184C143.354 98.4072 144.255 97.1187 145.391 96.0424L144.015 94.5905ZM140.85 99.131C140.145 100.825 139.797 102.649 139.797 104.594H141.797C141.797 102.893 142.1 101.332 142.697 99.9002L140.85 99.131ZM139.797 104.594C139.797 107.317 140.274 109.973 141.226 112.557L143.102 111.865C142.231 109.501 141.797 107.078 141.797 104.594H139.797ZM141.237 112.587C142.262 115.114 143.676 117.228 145.49 118.903L146.846 117.433C145.275 115.983 144.019 114.125 143.091 111.835L141.237 112.587ZM145.467 118.881L150.936 124.253L152.337 122.826L146.869 117.455L145.467 118.881ZM152.118 124.416C154.144 123.304 156.042 122.225 157.811 121.177L156.791 119.456C155.044 120.491 153.166 121.56 151.156 122.662L152.118 124.416ZM157.811 121.177C159.596 120.119 161.191 119.056 162.594 117.987L161.382 116.396C160.051 117.41 158.521 118.431 156.791 119.456L157.811 121.177Z" fill="black"/>
<path d="M199.156 111.977H230.846V125.404H223.033V172.621H239.146C239.57 172.621 239.977 172.507 240.367 172.279C240.79 172.019 241.148 171.693 241.441 171.303C241.767 170.912 242.027 170.489 242.223 170.033C242.418 169.577 242.516 169.138 242.516 168.715V158.803H258.336V186H199.156V172.621H206.822V125.404H199.156V111.977Z" fill="white"/>
<path d="M199.156 111.977V110.977H198.156V111.977H199.156ZM230.846 111.977H231.846V110.977H230.846V111.977ZM230.846 125.404V126.404H231.846V125.404H230.846ZM223.033 125.404V124.404H222.033V125.404H223.033ZM223.033 172.621H222.033V173.621H223.033V172.621ZM240.367 172.279L240.871 173.143L240.881 173.137L240.891 173.131L240.367 172.279ZM241.441 171.303L240.673 170.662L240.657 170.682L240.641 170.703L241.441 171.303ZM242.223 170.033L241.304 169.639L242.223 170.033ZM242.516 158.803V157.803H241.516V158.803H242.516ZM258.336 158.803H259.336V157.803H258.336V158.803ZM258.336 186V187H259.336V186H258.336ZM199.156 186H198.156V187H199.156V186ZM199.156 172.621V171.621H198.156V172.621H199.156ZM206.822 172.621V173.621H207.822V172.621H206.822ZM206.822 125.404H207.822V124.404H206.822V125.404ZM199.156 125.404H198.156V126.404H199.156V125.404ZM199.156 112.977H230.846V110.977H199.156V112.977ZM229.846 111.977V125.404H231.846V111.977H229.846ZM230.846 124.404H223.033V126.404H230.846V124.404ZM222.033 125.404V172.621H224.033V125.404H222.033ZM223.033 173.621H239.146V171.621H223.033V173.621ZM239.146 173.621C239.759 173.621 240.338 173.454 240.871 173.143L239.863 171.415C239.615 171.56 239.38 171.621 239.146 171.621V173.621ZM240.891 173.131C241.419 172.806 241.872 172.396 242.241 171.903L240.641 170.703C240.425 170.991 240.161 171.232 239.843 171.428L240.891 173.131ZM242.21 171.943C242.596 171.48 242.907 170.974 243.142 170.427L241.304 169.639C241.147 170.004 240.938 170.344 240.673 170.662L242.21 171.943ZM243.142 170.427C243.381 169.868 243.516 169.295 243.516 168.715H241.516C241.516 168.981 241.455 169.287 241.304 169.639L243.142 170.427ZM243.516 168.715V158.803H241.516V168.715H243.516ZM242.516 159.803H258.336V157.803H242.516V159.803ZM257.336 158.803V186H259.336V158.803H257.336ZM258.336 185H199.156V187H258.336V185ZM200.156 186V172.621H198.156V186H200.156ZM199.156 173.621H206.822V171.621H199.156V173.621ZM207.822 172.621V125.404H205.822V172.621H207.822ZM206.822 124.404H199.156V126.404H206.822V124.404ZM200.156 125.404V111.977H198.156V125.404H200.156Z" fill="black"/>
<path d="M62.3531 102.982L96.5328 102.995C100.341 102.997 103.841 103.6 107.03 104.806C110.22 105.979 112.97 107.575 115.28 109.594C117.591 111.613 119.396 113.942 120.698 116.579C121.999 119.216 122.649 121.967 122.648 124.832C122.646 128.282 122.124 131.521 121.081 134.548C120.071 137.542 118.491 140.146 116.342 142.358C114.193 144.571 111.474 146.328 108.186 147.629C104.898 148.897 101.007 149.53 96.5151 149.529L86.2124 149.525L86.207 163.636L92.9941 163.639L92.989 177.017L62.325 177.006L62.33 163.627L69.9961 163.63L70.014 116.413L62.348 116.41L62.3531 102.982ZM86.225 116.419L86.2174 136.292L92.9069 136.295C96.6178 136.296 99.564 135.516 101.746 133.954C103.927 132.393 105.019 129.919 105.02 126.534C105.021 123.376 103.997 120.902 101.947 119.111C99.8965 117.32 96.8858 116.423 92.9144 116.422L86.225 116.419Z" fill="white"/>
<path d="M62.3531 102.982L62.3535 101.982L61.3535 101.982L61.3531 102.982L62.3531 102.982ZM107.03 104.806L106.677 105.741L106.685 105.745L107.03 104.806ZM120.698 116.579L119.801 117.021L120.698 116.579ZM121.081 134.548L120.136 134.222L120.134 134.228L121.081 134.548ZM108.186 147.629L108.546 148.562L108.554 148.559L108.186 147.629ZM86.2124 149.525L86.2127 148.525L85.2127 148.524L85.2124 149.524L86.2124 149.525ZM86.207 163.636L85.207 163.636L85.2066 164.636L86.2066 164.636L86.207 163.636ZM92.9941 163.639L93.9941 163.639L93.9945 162.639L92.9945 162.639L92.9941 163.639ZM92.989 177.017L92.9886 178.017L93.9886 178.018L93.989 177.018L92.989 177.017ZM62.325 177.006L61.325 177.005L61.3246 178.005L62.3246 178.006L62.325 177.006ZM62.33 163.627L62.3304 162.627L61.3304 162.627L61.33 163.627L62.33 163.627ZM69.9961 163.63L69.9957 164.63L70.9957 164.63L70.9961 163.63L69.9961 163.63ZM70.014 116.413L71.014 116.413L71.0144 115.413L70.0144 115.413L70.014 116.413ZM62.348 116.41L61.348 116.41L61.3476 117.41L62.3476 117.41L62.348 116.41ZM86.225 116.419L86.2253 115.419L85.2253 115.419L85.225 116.419L86.225 116.419ZM86.2174 136.292L85.2174 136.292L85.217 137.292L86.217 137.292L86.2174 136.292ZM62.3527 103.982L96.5324 103.995L96.5332 101.995L62.3535 101.982L62.3527 103.982ZM96.5324 103.995C100.234 103.997 103.612 104.583 106.677 105.741L107.384 103.871C104.069 102.618 100.448 101.997 96.5332 101.995L96.5324 103.995ZM106.685 105.745C109.772 106.88 112.413 108.417 114.622 110.347L115.938 108.841C113.526 106.734 110.667 105.078 107.375 103.867L106.685 105.745ZM114.622 110.347C116.838 112.283 118.561 114.507 119.801 117.021L121.594 116.136C120.232 113.376 118.344 110.943 115.938 108.841L114.622 110.347ZM119.801 117.021C121.036 119.525 121.649 122.124 121.648 124.831L123.648 124.832C123.649 121.81 122.962 118.908 121.594 116.136L119.801 117.021ZM121.648 124.831C121.646 128.18 121.14 131.308 120.136 134.222L122.027 134.873C123.108 131.734 123.646 128.385 123.648 124.832L121.648 124.831ZM120.134 134.228C119.17 137.085 117.668 139.559 115.625 141.662L117.059 143.055C119.315 140.733 120.972 138 122.029 134.867L120.134 134.228ZM115.625 141.662C113.588 143.759 110.994 145.443 107.818 146.699L108.554 148.559C111.954 147.213 114.798 145.383 117.059 143.055L115.625 141.662ZM107.826 146.696C104.679 147.909 100.917 148.53 96.5155 148.529L96.5147 150.529C101.098 150.53 105.116 149.885 108.546 148.562L107.826 146.696ZM96.5155 148.529L86.2127 148.525L86.212 150.525L96.5147 150.529L96.5155 148.529ZM85.2124 149.524L85.207 163.636L87.207 163.636L87.2124 149.525L85.2124 149.524ZM86.2066 164.636L92.9937 164.639L92.9945 162.639L86.2074 162.636L86.2066 164.636ZM91.9941 163.638L91.989 177.017L93.989 177.018L93.9941 163.639L91.9941 163.638ZM92.9894 176.017L62.3253 176.006L62.3246 178.006L92.9886 178.017L92.9894 176.017ZM63.325 177.006L63.33 163.627L61.33 163.627L61.325 177.005L63.325 177.006ZM62.3297 164.627L69.9957 164.63L69.9964 162.63L62.3304 162.627L62.3297 164.627ZM70.9961 163.63L71.014 116.413L69.014 116.413L68.9961 163.629L70.9961 163.63ZM70.0144 115.413L62.3484 115.41L62.3476 117.41L70.0136 117.413L70.0144 115.413ZM63.348 116.411L63.3531 102.983L61.3531 102.982L61.348 116.41L63.348 116.411ZM85.225 116.419L85.2174 136.292L87.2174 136.293L87.225 116.42L85.225 116.419ZM86.217 137.292L92.9065 137.295L92.9072 135.295L86.2178 135.292L86.217 137.292ZM92.9065 137.295C96.7483 137.296 99.9222 136.489 102.328 134.768L101.164 133.141C99.2059 134.543 96.4873 135.296 92.9072 135.295L92.9065 137.295ZM102.328 134.768C104.84 132.969 106.019 130.148 106.02 126.534L104.02 126.533C104.019 129.69 103.015 131.816 101.164 133.141L102.328 134.768ZM106.02 126.534C106.021 123.139 104.908 120.37 102.605 118.358L101.289 119.864C103.086 121.434 104.021 123.614 104.02 126.533L106.02 126.534ZM102.605 118.358C100.304 116.348 97.0193 115.423 92.9148 115.422L92.914 117.422C96.7522 117.423 99.4886 118.291 101.289 119.864L102.605 118.358ZM92.9148 115.422L86.2253 115.419L86.2246 117.419L92.914 117.422L92.9148 115.422Z" fill="black"/>
<defs>
<radialGradient id="paint0_angular_219_209" cx="0" cy="0" r="1" gradientUnits="userSpaceOnUse" gradientTransform="translate(150 150) rotate(48.8251) scale(243.788)">
<stop stop-color="#6F8695"/>
<stop offset="1" stop-color="#6F8695" stop-opacity="0"/>
</radialGradient>
</defs>
</svg>
